<svg id="visual" viewBox="0 0 900 600" width="900" height="600" xmlns="http://www.w3.org/2000/svg" xmlns:xlink="http://www.w3.org/1999/xlink" version="1.1"><path d="M0 419L21.5 416.5C43 414 86 409 128.8 412.8C171.7 416.7 214.3 429.3 257.2 427.2C300 425 343 408 385.8 405.5C428.7 403 471.3 415 514.2 418.7C557 422.3 600 417.7 642.8 416C685.7 414.3 728.3 415.7 771.2 417C814 418.3 857 419.7 878.5 420.3L900 421L900 601L878.5 601C857 601 814 601 771.2 601C728.3 601 685.7 601 642.8 601C600 601 557 601 514.2 601C471.3 601 428.7 601 385.8 601C343 601 300 601 257.2 601C214.3 601 171.7 601 128.8 601C86 601 43 601 21.5 601L0 601Z" fill="#69dbfa"></path><path d="M0 453L21.5 453C43 453 86 453 128.8 449.7C171.7 446.3 214.3 439.7 257.2 443C300 446.3 343 459.7 385.8 458.7C428.7 457.7 471.3 442.3 514.2 432.5C557 422.7 600 418.3 642.8 425.8C685.7 433.3 728.3 452.7 771.2 461.8C814 471 857 470 878.5 469.5L900 469L900 601L878.5 601C857 601 814 601 771.2 601C728.3 601 685.7 601 642.8 601C600 601 557 601 514.2 601C471.3 601 428.7 601 385.8 601C343 601 300 601 257.2 601C214.3 601 171.7 601 128.8 601C86 601 43 601 21.5 601L0 601Z" fill="#00b8fe"></path><path d="M0 440L21.5 448.5C43 457 86 474 128.8 473.5C171.7 473 214.3 455 257.2 457.2C300 459.3 343 481.7 385.8 493C428.7 504.3 471.3 504.7 514.2 493.5C557 482.3 600 459.7 642.8 449.8C685.7 440 728.3 443 771.2 445.3C814 447.7 857 449.3 878.5 450.2L900 451L900 601L878.5 601C857 601 814 601 771.2 601C728.3 601 685.7 601 642.8 601C600 601 557 601 514.2 601C471.3 601 428.7 601 385.8 601C343 601 300 601 257.2 601C214.3 601 171.7 601 128.8 601C86 601 43 601 21.5 601L0 601Z" fill="#008ff9"></path><path d="M0 497L21.5 502.3C43 507.7 86 518.3 128.8 519C171.7 519.7 214.3 510.3 257.2 509.3C300 508.3 343 515.7 385.8 516.7C428.7 517.7 471.3 512.3 514.2 511.5C557 510.7 600 514.3 642.8 518.5C685.7 522.7 728.3 527.3 771.2 521.7C814 516 857 500 878.5 492L900 484L900 601L878.5 601C857 601 814 601 771.2 601C728.3 601 685.7 601 642.8 601C600 601 557 601 514.2 601C471.3 601 428.7 601 385.8 601C343 601 300 601 257.2 601C214.3 601 171.7 601 128.8 601C86 601 43 601 21.5 601L0 601Z" fill="#0060e7"></path><path d="M0 529L21.5 534.7C43 540.3 86 551.7 128.8 555C171.7 558.3 214.3 553.7 257.2 552C300 550.3 343 551.7 385.8 550.3C428.7 549 471.3 545 514.2 543.5C557 542 600 543 642.8 548.2C685.7 553.3 728.3 562.7 771.2 566.5C814 570.3 857 568.7 878.5 567.8L900 567L900 601L878.5 601C857 601 814 601 771.2 601C728.3 601 685.7 601 642.8 601C600 601 557 601 514.2 601C471.3 601 428.7 601 385.8 601C343 601 300 601 257.2 601C214.3 601 171.7 601 128.8 601C86 601 43 601 21.5 601L0 601Z" fill="#2e24c7"></path></svg>