<svg id="visual" viewBox="0 0 900 600" width="900" height="600"
  xmlns="http://www.w3.org/2000/svg"
  xmlns:xlink="http://www.w3.org/1999/xlink" version="1.1">
  <path d="M97 0L114 14.3C131 28.7 165 57.3 175.5 85.8C186 114.3 173 142.7 168.2 171.2C163.3 199.7 166.7 228.3 157.8 257C149 285.7 128 314.3 117 343C106 371.7 105 400.3 118.7 428.8C132.3 457.3 160.7 485.7 170 514.2C179.3 542.7 169.7 571.3 164.8 585.7L160 600L0 600L0 585.7C0 571.3 0 542.7 0 514.2C0 485.7 0 457.3 0 428.8C0 400.3 0 371.7 0 343C0 314.3 0 285.7 0 257C0 228.3 0 199.7 0 171.2C0 142.7 0 114.3 0 85.8C0 57.3 0 28.7 0 14.3L0 0Z" fill="#0066FF" stroke-linecap="round" stroke-linejoin="miter"></path>
</svg>