<svg id="visual" viewBox="0 0 900 600" width="900" height="600" xmlns="http://www.w3.org/2000/svg" xmlns:xlink="http://www.w3.org/1999/xlink" version="1.1"><path d="M0 398L16.7 410.2C33.3 422.3 66.7 446.7 100 445.7C133.3 444.7 166.7 418.3 200 418.2C233.3 418 266.7 444 300 461C333.3 478 366.7 486 400 487.3C433.3 488.7 466.7 483.3 500 470.5C533.3 457.7 566.7 437.3 600 433.7C633.3 430 666.7 443 700 445.2C733.3 447.3 766.7 438.7 800 428.8C833.3 419 866.7 408 883.3 402.5L900 397L900 601L883.3 601C866.7 601 833.3 601 800 601C766.7 601 733.3 601 700 601C666.7 601 633.3 601 600 601C566.7 601 533.3 601 500 601C466.7 601 433.3 601 400 601C366.7 601 333.3 601 300 601C266.7 601 233.3 601 200 601C166.7 601 133.3 601 100 601C66.7 601 33.3 601 16.7 601L0 601Z" fill="#008bff" stroke-linecap="round" stroke-linejoin="miter"></path></svg>